<?xml version="1.0" encoding="utf-8"?>
<!-- Generator: Adobe Illustrator 21.1.0, SVG Export Plug-In . SVG Version: 6.00 Build 0)  -->
<svg version="1.1" id="Layer_1" xmlns="http://www.w3.org/2000/svg" xmlns:xlink="http://www.w3.org/1999/xlink" x="0px" y="0px"
	 viewBox="0 0 841.9 595.3" style="enable-background:new 0 0 841.9 595.3;" xml:space="preserve">
<style type="text/css">
	.st0{fill:none;stroke:#fff;stroke-width:8;stroke-miterlimit:10;}
</style>
<path class="st0" d="M486.2,203.2l-130.5,0.4l-0.2-67.5c0.4,0.2,0.8,0.4,1.3,0.4L485,136c0.4,0,0.7-0.1,1.1-0.2L486.2,203.2z
	 M126.6,323.6l15.8,15.1l-0.5,112.1l113.4,0.5l0.6-127.2L126.6,323.6z M588.6,325.8L588,453l113.4,0.5l0.5-112.1l15.5-15
	L588.6,325.8z M422.6,234.4l-156.9,43.9l316.9,1.5L422.6,234.4z M589.1,222.6L588,453l-332.8-1.6l1.1-230.4L589.1,222.6z
	 M265.8,278.3l316.9,1.5l-160.1-45.4L265.8,278.3z M422.6,234.4l-156.9,43.9l316.9,1.5L422.6,234.4z M256.5,185.7l-0.2,35.4l61,0.3
	l0.2-35.4L256.5,185.7z M528.1,222.3l61,0.3l0.2-35.4l-61-0.3L528.1,222.3z M422.8,39.6l0-3.1c2.7-0.8,4.7-3.3,4.7-6.3
	c0-2.9-1.9-5.5-4.6-6.3l0-9.6l7.3,0l0-3.7l-7.3,0l0-7.9l-4,0l0,7.9l-7.3,0l0,3.7l7.3,0l0,9.6c-2.6,0.9-4.5,3.3-4.5,6.2
	c0,2.9,1.9,5.4,4.5,6.3l0,3.2c-4.1,0.5-7.2,2.5-7.2,4.9c0,2.4,3.1,4.4,7.2,5l0,2.4l4,0l0-2.4c4.2-0.5,7.4-2.5,7.4-4.9
	C430.1,42.2,427,40.1,422.8,39.6z M566,132.8l0-3.5l-5.5,0l0-5.5l-3,0l0,5.5l-5.5,0l0,3.5l5.5,0l0,7.5c-1.8,0.6-3,2.3-3,4.3
	c0,2,1.2,3.6,3,4.3l0,2.9l3,0l0-2.9c1.8-0.6,3-2.3,3-4.3c0-2-1.2-3.7-3-4.3l0-7.5L566,132.8z M293.6,133.6l0-3.5l-5.5,0l0-5.5l-3,0
	l0,5.5l-5.5,0l0,3.5l5.5,0l0,7.5c-1.8,0.6-3,2.3-3,4.3c0,2,1.2,3.7,3,4.3l0,2.9l3,0l0-2.9c1.8-0.6,3-2.3,3-4.3c0-2-1.2-3.7-3-4.3
	l0-7.5L293.6,133.6z M182.7,323.9l73.1,0.3l0.1-19.5l-73.1-0.3L182.7,323.9z M588.7,306.3l-0.1,19.5l75.2,0.4l0.1-19.5L588.7,306.3z
	 M311.5,311.1l-25.6-0.1l-0.7,140.6l25.6,0.1L311.5,311.1z M359.5,311.3l-25.6-0.1l-0.7,140.6l25.6,0.1L359.5,311.3z M570.4,300.1
	l-292.2-1.4l-0.1,12.2l292.2,1.4L570.4,300.1z M265.8,279.1l15,12.2l-2.5,7.4l292.2,1.4l-2.4-7.8l14.7-11.7 M407.6,311.5l-25.6-0.1
	L381.3,452l25.6,0.1L407.6,311.5z M462.8,311.8l-25.6-0.1l-0.7,140.6l25.6,0.1L462.8,311.8z M510.9,312l-25.6-0.1l-0.7,140.6
	l25.6,0.1L510.9,312z M558.9,312.3l-25.6-0.1l-0.7,140.6l25.6,0.1L558.9,312.3z M712.9,453.6l-582.7-2.8l-0.1,22.6l582.7,2.8
	L712.9,453.6z M692.7,341.3L589,340.8l0,9l103.7,0.5L692.7,341.3z M684.6,350.3l-11.5-0.1l-0.5,103.1l11.5,0.1L684.6,350.3z
	 M657.5,350.2l-11.5-0.1l-0.5,103.1l11.5,0.1L657.5,350.2z M628.3,350.1l-11.5-0.1l-0.5,103.1l11.5,0.1L628.3,350.1z M151.2,347.8
	l104.5,0.5l0-9l-104.5-0.5L151.2,347.8z M158.8,450.9l11.6,0.1l0.5-103.1l-11.6-0.1L158.8,450.9z M186,451.1l11.6,0.1l0.5-103.1
	l-11.6-0.1L186,451.1z M215.5,451.2l11.6,0.1l0.5-103.1l-11.6-0.1L215.5,451.2z M423.4,242.2l-102.4,28.7l206.8,1L423.4,242.2z
	 M378.7,203.5l0.2-46.7c0,0,0.7-8.3-3.7-8.3c-4.3,0-3.6,8.3-3.6,8.3l-0.2,46.8 M472,202.8l0.2-46.7c0,0,0.8-8.3-3.5-8.3
	c-4.4,0-3.7,8.3-3.7,8.3l-0.2,46.7 M398.1,203l0.2-46.7c0,0,0.7-8.3-3.7-8.3c-4.3,0-3.6,8.3-3.6,8.3l-0.2,47.8 M453,203.9l0.2-47.9
	c0,0,0.8-8.3-3.5-8.3c-4.4,0-3.7,8.3-3.7,8.3l-0.2,46.7 M417.5,202.9l0.2-46.7c0,0,0.7-8.3-3.7-8.3c-4.3,0-3.6,8.3-3.6,8.3
	l-0.2,46.5 M434.1,202.9l0.2-46.7c0,0,0.7-8.3-3.7-8.3c-4.3,0-3.6,8.3-3.6,8.3l-0.2,46.2 M715.7,476.6l-587.9-2.8l-0.1,22.6
	l587.9,2.8L715.7,476.6z M718.3,499.6L125,496.8l-0.1,22.6l593.3,2.8L718.3,499.6z M722.4,522.6l-601.7-2.9l-0.1,22.6l601.7,2.9
	L722.4,522.6z M727,545.7l-611.4-2.9l-0.1,22.6l611.4,2.9L727,545.7z M731.1,568.4l-619.5-3l-0.1,22.6l619.5,3L731.1,568.4z
	 M489.5,203.9l-135.1,0.4c-1.7,0-3,1.4-3,3l0,15.1l141.2-0.4l0-15C492.5,205.3,491.2,203.9,489.5,203.9z M486.4,118.5
	c0-50.8-29.5-66.7-65.5-66.6c-36,0.1-67.6,19.9-64.9,66.8l0,0c0.4,0.2,0.8,0.3,1.3,0.3l128.1-0.3
	C485.7,118.7,486.1,118.7,486.4,118.5L486.4,118.5z M488,123.4c0-1.4-0.6-2.6-1.6-3.4c-0.8-0.6-1.7-1-2.8-1l-124.9,0.3
	c-1.1,0-2.1,0.4-2.8,1.1c-0.9,0.8-1.4,1.9-1.4,3.2l0,11.2c0,1,0.6,1.9,1.4,2.4c0.4,0.2,0.8,0.3,1.3,0.3l128.1-0.4
	c0.4,0,0.7-0.1,1.1-0.2c1-0.4,1.6-1.4,1.6-2.5L488,123.4z M563.9,152.6l-10.8,0c-13.9,0-25.1,11.3-25,25.2l0,8.4l61-0.2l0-8.4
	C589.1,163.7,577.8,152.5,563.9,152.6z M292.1,152.6l-10.8,0c-13.9,0-25.1,11.3-25,25.2l0,8.4l61-0.2l0-8.4
	C317.2,163.7,306,152.5,292.1,152.6z"/>
</svg>
